<?xml version="1.0" encoding="utf-8"?>
<!-- Generator: Adobe Illustrator 27.7.0, SVG Export Plug-In . SVG Version: 6.00 Build 0)  -->
<svg version="1.1" id="Слой_1" xmlns="http://www.w3.org/2000/svg" xmlns:xlink="http://www.w3.org/1999/xlink" x="0px" y="0px"
	 viewBox="0 0 1080 540" style="enable-background:new 0 0 1080 540;" xml:space="preserve">
<style type="text/css">
	.st0{fill:#FFFFFF;}
	.st1{fill:#E6E6E6;}
</style>
<g>
	<path class="st0" d="M638.8,386.76c0,0,19.52-22.51,8.48-45.69s-33.33-37.8-58.02-41.7c0,0-7.8-26.25-33.9-35.33
		c-24.7-8.6-94.51-11.64-83.44,15.24c0,0-35.01-18.75-54.97,18.73c-19.96,37.48,0,49.4,0,49.4s-11.48,16.12-11.48,43.19
		s36.36,43.86,36.36,43.86s-6.93,10.52,13.91,31.04c20.84,20.52,40.87,12.77,40.87,12.77s15.65,20.68,44.86,20.68
		c29.21,0,56.46-12.44,61.57-33.45c0,0,14.03-0.4,32.35-18.45C653.73,428.99,655.83,396.11,638.8,386.76z M595.22,365.96
		c0,0,1.71-29.6-21.75-41.38c-12.79-6.41-41.93,4.27-41.93,4.27s6.68-16-11.32-25c-24.91-12.45-35.25,4.41-35.25,4.41
		s-3-13.06-24.75-2.86c0,0,22.5-15.36,45.75-15.36s31.5,18.22,31.5,18.22s20.25-9.17,43.5,7.71
		C604.22,332.86,595.22,365.96,595.22,365.96z"/>
	<g>
		<g>
			<path class="st0" d="M221.81,315.98c0,0-1.79-64.28,31.33-72.34c33.12-8.05,40.28,0,40.28,0s-8.95,7.16-8.95,21.49
				s1.79,23.27,1.79,23.27s9.85-50.13,36.7-60.87c26.85-10.74,21.48-7.16,34.91-7.16c13.43,0,15.22-31.33-17.9-25.06
				c0,0,37.6-59.08,128.01-59.08c0,0,9.85-18.8-3.58-18.8c0,0,31.33-26.86,43.86-39.39c0,0,14.32,10.74,25.06,0
				c10.74-10.74,27.75-25.06,76.09-11.64c48.34,13.43,69.82,42.07,69.82,42.07S630.9-11.48,527.06,51.18c0,0-13.88-14.77-31.33,2.69
				c0,0-32.22-48.34-90.41-8.06c-58.19,40.28-21.48,84.14-21.48,84.14s-20.59-4.47-40.28,5.37c-19.7,9.85-23.28,37.55-23.28,37.55
				s-9.85,27.79-22.38,27.79c-12.53,0-11.64-15.22-36.7-5.37S195.85,281.79,221.81,315.98z"/>
			<path class="st0" d="M382.94,281.24c0,0,3.13-29.09,16.11-42.07c12.98-12.98,57.29-23.28,57.29-23.28s-0.9-19.69,21.48-26.85
				c22.38-7.16,53.71,0,53.71,0s-25.96-20.59-56.4-20.59s-44.76,33.12-44.76,33.12s-31.78-2.24-42.52,8.5
				c-10.74,10.74-12.98,27.75-12.98,27.75s5.82-14.32,19.25-19.24c13.43-4.92,21.04-2.24,21.04-2.24S382.94,225.74,382.94,281.24z"
				/>
			<path class="st0" d="M624.19,95.6c0,0,21.99-3.86,32.9,7.05c10.91,10.91,8.73,30.89,8.73,30.89S642.65,91.91,624.19,95.6z"/>
			<path class="st0" d="M554.48,159.72c0,0,8.61-22.83,44.19-22.83c35.58,0,52.37,28.87,52.37,28.87S589.57,132.42,554.48,159.72z"
				/>
			<path class="st0" d="M342.88,293.33c0,0-37.93,91.64,10.07,139.65c0,0,6.72-10.74,6.72-24.17c0,0,2.24,44.98,15.22,51.02
				c12.98,6.04-10.18,30.1,0,40.28c10.18,10.18,43.19,30.88,43.19,30.88s-49.96-18.29-65.12-33.45
				c-15.16-15.16-6.04-37.04-6.04-37.04s-4.03,14.77-27.53-30.21C295.88,385.3,317.37,304.07,342.88,293.33z"/>
			<path class="st0" d="M399.28,297.35c0,0-28.87,14.77-28.87,45.65c0,30.88,28.87,57.07,28.87,57.07S365.37,331.26,399.28,297.35z"
				/>
			<path class="st0" d="M264.33,340.32c0,0-7.38,71.84-16.78,71.84s-3.36,32.22,8.39,35.58c0,0-3.02-18.13,3.69-24.84
				c0,0,3.36,42.97,25.51,52.37c0,0-10.07-18.8,4.7-33.57c0,0-6.72,37.6,10.74,47.67c0,0-2.01,7.39,3.36,28.2
				c5.37,20.81,70.94,20.81,70.94,20.81s10.97-8.73,24.39-4.03c13.43,4.7,30.88,8.73,30.88,8.73l-321.59,6.04
				c0,0,52.37-13.43,73.18-21.48s-3.36-2.02-9.4-19.47c-6.04-17.45,16.11-26.18,16.11-26.18s-13.09-13.09,6.04-32.23
				c19.13-19.13,36.26-13.43,36.26-13.43s-6.04-8.73-6.04-19.47c0-10.74,16.78-11.41,16.78-11.41S264.33,349.96,264.33,340.32z"/>
			<path class="st0" d="M458.36,484.67c0,0,9.4,28.2,28.2,32.23c18.8,4.03,26.85,4.7,26.85,4.7s-22.16,7.39-44.31,0
				s-25.51-20.14-25.51-20.14s-1.34,12.76-21.48,0c-20.14-12.76-15.44-42.97-15.44-42.97s-21.48,34.24,7.39,53.71
				c28.87,19.47,33.68,21.74,42.15,30.21c0,0,12.24,8.06,68.63,0l93.99,0.67c0,0,28.87-14.54,28.87-45.54c0,0-16.78,30.1-32.9,30.1
				s-11.41-14.1-40.28-14.1c-28.87,0-35.58,6.04-35.58,6.04s-19.47-17.34-40.95-17.34C476.49,502.24,458.36,491.38,458.36,484.67z"
				/>
			<path class="st0" d="M630.23,271.17c0,0,31.22-12.42,49.01,5.37c17.79,17.79,15.44,43.64,15.44,43.64s14.44-1.01,25.51,10.07
				c11.08,11.08,16.11,59.08-22.83,73.18c0,0,12.76,14.77-13.43,20.81c0,0,14.1-23.5,8.06-45.66
				c-6.04-22.15-19.47-22.15-19.47-22.15s17.37-19.47,6.67-44.98C668.5,285.94,661.12,275.2,630.23,271.17z"/>
			<path class="st0" d="M692,122.79c0,0-9.9,11.25,7.38,28.54c17.29,17.29,28.78,21.55,28.78,21.55s-2.6,7.65,4.12,14.37
				c0,0-59.08-16.11-102.05,10.07c-42.97,26.19-40.95,49.01-40.95,49.01s37.28-44.98,76.71-44.98c39.43,0,113.28,58.41,130.07,96.01
				c16.79,37.6,0.34,58.74,12.76,71.17c12.42,12.42,30.21,0,30.21,0s14.1,2.69,6.04,16.11c-8.06,13.43-18.8,4.03-18.8,15.44
				c0,11.41,4.03,46.32-6.71,71.17s-26.85,34.24-26.85,34.24s44.98-8.73,57.74-46.99c12.76-38.27,7.38-63.78,7.38-63.78
				s16.78-3.35,16.78-16.11c0-12.76-8.06-24.17-8.06-24.17s3.36-4.03,8.06-27.53c4.7-23.5-18.12-75.87-51.69-75.87
				c0,0-2.69-34.24-30.21-28.87c0,0,6.71-34.1-21.48-49.28c-28.2-15.17-31.55-7.12-31.55-7.12s-7.39-18.8-19.47-18.8
				C708.11,146.96,692,122.79,692,122.79z"/>
			<path class="st0" d="M718.85,106.68c0,0,16.87-5.78,30.21,7.56c13.34,13.34,10.07,34.07,0,34.07
				C739,148.31,734.97,106.68,718.85,106.68z"/>
			<path class="st0" d="M820.23,172.88c0,0,17.46,6.98,30.21,19.74c12.76,12.76,6.04,46.32,6.04,46.32S835.67,169.93,820.23,172.88z
				"/>
			<path class="st0" d="M753.09,305.41c0,0,14.77,29.54,24.84,50.35s-0.5,95.5-12.42,107.42c-11.92,11.92-33.91,43.19-48,39.05
				s6.53-17.57,10.65-29.65c0,0,22.24-19.47,14.86-48.34c0,0-0.14,13.47-14.86,28.19c-14.73,14.73-33.48,6.04-33.48,6.04
				s15.72,28.04,4.7,39.06c-11.02,11.02-23.83,12.98-34.24,23.38c-10.41,10.41-8.06,18.8-8.06,18.8h333c0,0-2.01-13.43-20.81-13.43
				c-18.8,0-20.82,4.7-20.82,4.7s11.08-10.41,3.36-18.13c-7.72-7.72-11.41-2.69-11.41-2.69s7.39-8.05,7.39-24.84
				c0-16.78-23.5-26.85-23.5-26.85s18.12,8.06,11.41,26.18c-6.71,18.13-22.82,20.81-22.82,20.81s6.38,7.72,0,14.1
				c-6.38,6.38-24.84,0-24.84,0s7.27-22.6-12.82-17.34c-20.08,5.26-28.81,24.73-28.81,24.73s-14.1-8.73-30.88-3.35
				c0,0,19.89-7.39,23.71-18.13c3.82-10.74,5.16-14.1,5.16-14.1s-27.53,27.53-51.02,33.57c-23.5,6.04-43.64-2.69-43.64-2.69
				s24.84-3.8,30.88-20.03c6.04-16.22,2.69-24.28,2.69-24.28s28.87-4.7,28.87-37.6s-15.44-40.28-15.44-40.28
				S795.39,331.59,753.09,305.41z"/>
			<path class="st1" d="M820.23,290.04c11.17,28.67,0,65.51,0,65.51s19.01-4.59,19.01-26.34s3.41-11.77,3.41-35.89
				c0-24.11-8.84-18.76-22.42-39.06c-13.58-20.31-3.83-29.42-38.33-29.42C729.49,224.84,802.21,243.79,820.23,290.04z"/>
			<path class="st1" d="M398.98,114.24c0,0,8.67-13.58,37.17-8.81c0,0,6.5-23.72,33-30.72s32-5.5,32-5.5s-16-16-40-14
				s-30.99,29.43-30.99,29.43s-11.51-7.91-26.51-5.42C388.65,81.71,380.8,109.77,398.98,114.24z"/>
			<g>
				<path class="st1" d="M269.37,494.59c0,0-17.71-0.01-31.59-13.89s-3.38-28.86-3.38-28.86s-23.25,24-15.38,42.38
					c7.88,18.37,24.98,8.02,24.98,8.02s-20.86,26.48,16.36,39.6c4.02,1.42,8.08,2.82,12.12,4.2l46.42-0.87
					C242.61,533.19,269.47,494.89,269.37,494.59z"/>
				<path class="st1" d="M188.65,530.99c-8.72,4.15-25.53,11.92-37.26,17.32l79.39-1.49c-5.57-17.94-11.68-26.68-17.36-32.36
					C205.93,506.97,202.9,524.21,188.65,530.99z"/>
			</g>
			<g>
				<path class="st1" d="M732.24,528.21c13.59-2.5,14.91-22.73,14.91-22.73s19.5,3.73,25.5-11.27s3.5-37.73,3.5-37.73
					s-5.69,18.04-30.5,42.85c-36.31,36.31-37.41-2.71-62,21.88c-7.78,7.78-11.78,14.41-13.75,18.51h22.25
					C698.65,520.23,718.65,530.71,732.24,528.21z"/>
			</g>
		</g>
		<path class="st0" d="M213.42,422.57c0,0-14.77-2.85-28.52,16.65s-4.25,38.5-4.25,38.5s-21-34,0.5-46S213.42,422.57,213.42,422.57z
			"/>
		<path class="st0" d="M231.15,381.21c0,0-15.68,5.22-15.68,18.86c0,13.64,6.18,22.19,6.18,22.19s-10.5-6-10.5-20.53
			S231.15,381.21,231.15,381.21z"/>
		<path class="st0" d="M259.65,305.41c0,0,4.49,41.31-9.01,54.8c-13.5,13.49-22.99,8.5-22.99,8.5s18.48-3,22.99-16.5
			C255.15,338.71,259.65,305.41,259.65,305.41z"/>
		<path class="st0" d="M1042.99,538.78c-9.06-4.7-30.91-13.77-36.03-5.2c-4.48-2.23-7.85-7.18-12.39-10.64
			c-7.23-5.89-11.82-5.49-19.82-4.64c0.34-0.71,0.82-1.48,1.34-2.33c5.81-9.44-3.97-18.76-13.54-18.96
			c8.4-26.38-2.17-49.3-26.51-40.53c25.14-7.04,32.82,15.95,23.55,41.41l-0.73,2.02c1.13,0.04,4.19-1.55,10,1.56
			c11.76,6.35,3.26,14.19,2.6,17.54c0.04,0.17-0.32,0.58,0.27,1.66c1.87,2.75,10.28-4.12,21.08,4.5c5.83,4.61,8.87,9.53,14.43,11.47
			l1.44,0.5c0.26-0.3-0.56-4.59,6.91-4.52c9.71-0.02,21.72,5.74,27.29,8.06c11.93-3.8,11.97-3.94,34.55,3.41
			C1071.87,541.82,1052.87,535.7,1042.99,538.78z M974.3,519.57C974.3,519.64,974.29,519.63,974.3,519.57L974.3,519.57z"/>
		<path class="st0" d="M145.35,477.23c-22.03,11.13-34.97,23.36-23.71,42.28c-11.79,7.66-40.51,15.17-54.1,18.46
			c-1.38-4.86-6.18-6.04-9.29-4c-2.36,1.65-3.98,4.18-8.21,7.17c-5.68,4.04-37.8,17.7-45.02,9.74c-3.64-4.13-2.24-9.37,5.28-11.62
			c-3.58,0.89-7.66,3.21-7.7,6.88c-0.02,17.04,42.1,3.35,52.99-6.77c2.61-2.38,3.68-4,5.82-3.98c4.11,0.07,3.96,5.32,4.07,5.68
			c0.36-0.1,45.36-9.92,59.09-19.98l1.03-0.76c-0.05-0.3-11.49-15.45-0.48-25.57c11.09-10.9,24.39-16.66,24.98-17.01
			c-0.07-0.31-21.29-12.24-5.01-45.88c7.6-16.08,23.57-24.83,39.8-24.61C144.02,404.59,124.19,457.57,145.35,477.23z"/>
	</g>
	<path class="st1" d="M457.97,407.17c0,0-9.75,31.12,14.25,47.4s55.85,7.26,55.85,7.26S462.47,456.74,457.97,407.17z"/>
	<path class="st1" d="M484.97,324.61c0,0-49.5-1.87-49.5,30.94c0,32.81,24.75,39.55,24.75,39.55S413.72,342.61,484.97,324.61z"/>
	<path class="st1" d="M430.16,381.21c0,0-9.27,25.96,8.31,34.17C438.47,415.39,424.59,401.19,430.16,381.21z"/>
	<path class="st1" d="M523.33,443.15c0,0,57.73,12.79,79.43-16.5s7.45-47.19,7.45-47.19S594.7,443.15,523.33,443.15z"/>
</g>
</svg>
